<?xml version="1.0" encoding="UTF-8" standalone="no"?>
<!DOCTYPE svg PUBLIC "-//W3C//DTD SVG 1.1//EN" "http://www.w3.org/Graphics/SVG/1.1/DTD/svg11.dtd">
<svg width="100%" height="100%" viewBox="0 0 580 145" version="1.1" xmlns="http://www.w3.org/2000/svg" xmlns:xlink="http://www.w3.org/1999/xlink" xml:space="preserve" xmlns:serif="http://www.serif.com/" style="fill-rule:evenodd;clip-rule:evenodd;stroke-linejoin:round;stroke-miterlimit:2;">
    <g transform="matrix(1,0,0,1,-210,-427.5)">
        <g>
            <clipPath id="_clip1">
                <path d="M261.5,462.87L230.3,494.07C229.5,494.87 228.89,495.8 228.49,496.78C228.07,497.81 227.86,498.91 227.86,500C227.86,501.1 228.07,502.2 228.5,503.23C228.9,504.21 229.51,505.13 230.31,505.94L236.24,511.87L283.76,464.34C284.56,463.54 285.17,462.61 285.57,461.64C285.99,460.62 286.2,459.52 286.2,458.42C286.2,457.32 285.99,456.22 285.57,455.19C285.17,454.21 284.56,453.29 283.76,452.49L277.83,446.56L261.5,462.87ZM292.7,485.13C294.7,487.13 296.21,489.45 297.24,491.94C298.3,494.51 298.83,497.25 298.83,499.99C298.83,502.74 298.3,505.49 297.24,508.06C296.23,510.51 294.75,512.79 292.79,514.77L265.98,541.58L277.84,553.44L283.77,547.51C284.57,546.71 285.18,545.78 285.58,544.8C286,543.77 286.22,542.67 286.22,541.58C286.22,540.48 286.01,539.38 285.58,538.35C285.18,537.37 284.57,536.45 283.77,535.64L292.7,526.71C294.7,528.71 296.21,531.03 297.24,533.52C298.3,536.1 298.84,538.84 298.84,541.58C298.83,544.32 298.3,547.07 297.24,549.64C296.22,552.12 294.7,554.44 292.7,556.44L277.83,571.31L248.1,541.58L283.76,505.92C284.56,505.12 285.17,504.19 285.57,503.22C285.99,502.19 286.21,501.09 286.21,499.99C286.21,498.89 285.99,497.78 285.57,496.76C285.17,495.78 284.56,494.86 283.76,494.06L292.7,485.13ZM261.5,504.47L236.24,529.73L221.37,514.86C219.37,512.86 217.85,510.54 216.83,508.05C215.77,505.48 215.24,502.74 215.24,500C215.24,497.25 215.77,494.5 216.84,491.93C217.87,489.45 219.38,487.12 221.38,485.13L277.84,428.67L292.71,443.54C294.71,445.54 296.22,447.86 297.25,450.35C298.31,452.92 298.84,455.66 298.84,458.4C298.84,461.15 298.31,463.9 297.25,466.47C296.24,468.91 294.76,471.2 292.8,473.18L292.71,473.27L261.5,504.47Z"/>
            </clipPath>
            <g clip-path="url(#_clip1)">
                <rect x="215.24" y="428.68" width="83.6" height="142.65" style="fill:url(#_Linear2);"/>
            </g>
        </g>
    </g>
    <g transform="matrix(1,0,0,1,-210,-427.5)">
        <path d="M783.07,473.06C784.2,473.06 784.76,473.63 784.76,474.76L784.76,482.3C784.76,483.48 784.19,484.07 783.07,484.07L748.82,484.07C746.82,484.07 745.17,484.24 743.86,484.57C742.55,484.9 741.51,485.47 740.75,486.26C739.98,487.05 739.43,488.12 739.09,489.45C738.76,490.78 738.59,492.48 738.59,494.53L738.59,505.46C738.59,507.51 738.76,509.22 739.09,510.58C739.43,511.94 739.97,513.02 740.75,513.81C741.52,514.61 742.56,515.17 743.86,515.51C745.17,515.84 746.82,516.01 748.82,516.01L783.07,516.01C784.2,516.01 784.76,516.58 784.76,517.71L784.76,525.25C784.76,526.38 784.19,526.94 783.07,526.94L748.36,526.94C744.46,526.94 741.15,526.58 738.43,525.86C735.71,525.14 733.49,523.97 731.77,522.36C730.05,520.74 728.79,518.64 728,516.05C727.21,513.46 726.81,510.31 726.81,506.62L726.81,493.38C726.81,489.68 727.21,486.56 728,483.99C728.79,481.42 730.05,479.34 731.77,477.72C733.49,476.11 735.71,474.92 738.43,474.18C741.15,473.44 744.46,473.06 748.36,473.06L783.07,473.06Z" style="fill:white;fill-rule:nonzero;"/>
    </g>
    <g transform="matrix(1,0,0,1,-210,-427.5)">
        <path d="M603.67,473.06C609.57,473.06 613.8,474.39 616.37,477.07C618.94,479.74 620.22,483.69 620.22,488.92L620.22,493.31C620.22,497.72 619.32,501.21 617.53,503.78C615.73,506.35 612.81,507.99 608.75,508.71L621.91,525.03C622.16,525.29 622.24,525.67 622.14,526.18C622.04,526.69 621.62,526.95 620.91,526.95L610.98,526.95C610.31,526.95 609.85,526.87 609.59,526.72C609.33,526.56 609.08,526.31 608.82,525.95L596.66,509.94L571.8,509.94L571.8,525.26C571.8,526.39 571.24,526.95 570.11,526.95L561.8,526.95C560.62,526.95 560.03,526.38 560.03,525.26L560.03,475.39C560.03,473.85 560.8,473.08 562.34,473.08L603.67,473.08L603.67,473.06ZM571.8,500.54L601.28,500.54C603.9,500.54 605.74,499.98 606.82,498.85C607.9,497.72 608.44,496 608.44,493.69L608.44,490.45C608.44,488.14 607.9,486.42 606.82,485.29C605.74,484.16 603.89,483.6 601.28,483.6L572.8,483.6C572.13,483.6 571.8,483.91 571.8,484.52L571.8,500.54Z" style="fill:white;fill-rule:nonzero;"/>
    </g>
    <g transform="matrix(1,0,0,1,-210,-427.5)">
        <path d="M548.09,473.06C549.22,473.06 549.79,473.63 549.79,474.76L549.79,525.25C549.79,526.38 549.23,526.94 548.09,526.94L539.78,526.94C538.6,526.94 538.01,526.37 538.01,525.25L538.01,474.76C538.01,473.63 538.6,473.06 539.78,473.06L548.09,473.06Z" style="fill:white;fill-rule:nonzero;"/>
    </g>
    <g transform="matrix(1,0,0,1,-210,-427.5)">
        <path d="M411.25,473.06C412.38,473.06 412.94,473.63 412.94,474.76L412.94,505.47C412.94,507.52 413.11,509.23 413.44,510.59C413.77,511.95 414.33,513.03 415.09,513.82C415.86,514.62 416.9,515.18 418.21,515.52C419.52,515.85 421.17,516.02 423.17,516.02L454.34,516.02C455.47,516.02 456.03,516.59 456.03,517.72L456.03,525.26C456.03,526.39 455.47,526.95 454.34,526.95L422.71,526.95C418.81,526.95 415.5,526.59 412.78,525.87C410.06,525.15 407.84,523.98 406.12,522.37C404.4,520.75 403.14,518.65 402.35,516.06C401.56,513.47 401.16,510.32 401.16,506.63L401.16,474.77C401.16,473.64 401.75,473.07 402.93,473.07L411.25,473.07L411.25,473.06Z" style="fill:white;fill-rule:nonzero;"/>
    </g>
    <g transform="matrix(1,0,0,1,-210,-427.5)">
        <path d="M391.93,473.06C393.11,473.06 393.7,473.63 393.7,474.76L393.7,482.07C393.7,483.2 393.11,483.76 391.93,483.76L358.52,483.76C356.52,483.76 354.87,483.93 353.56,484.26C352.25,484.6 351.21,485.16 350.44,485.96C349.67,486.75 349.12,487.83 348.78,489.19C348.45,490.55 348.28,492.23 348.28,494.23L348.28,495.77L391.53,495.77C392.66,495.77 393.22,496.34 393.22,497.46L393.22,503.54C393.22,504.67 392.66,505.23 391.53,505.23L348.3,505.23L348.3,525.24C348.3,526.37 347.73,526.93 346.61,526.93L338.3,526.93C337.12,526.93 336.53,526.36 336.53,525.24L336.53,493.38C336.53,489.68 336.93,486.56 337.72,483.99C338.52,481.42 339.77,479.34 341.49,477.72C343.21,476.11 345.43,474.92 348.15,474.18C350.87,473.44 354.18,473.06 358.08,473.06L391.93,473.06Z" style="fill:white;fill-rule:nonzero;"/>
    </g>
    <g transform="matrix(1,0,0,1,-210,-427.5)">
        <path d="M488.25,495.81L494.29,484.54C494.5,484.18 494.78,484 495.14,484L495.6,484C495.96,484 496.24,484.18 496.44,484.54L504.14,498.72L508.7,507.08L518.11,524.34L518.99,525.95C519.3,526.62 519.89,526.95 520.76,526.95L530.53,526.95C531.14,526.95 531.52,526.78 531.64,526.45C531.77,526.12 531.71,525.69 531.45,525.18L506,478.91C504.72,476.6 503.41,475.05 502.08,474.25C500.75,473.45 499.11,473.05 497.15,473.05L492.61,473.05C490.97,473.05 489.53,473.45 488.3,474.25C487.07,475.04 485.81,476.6 484.53,478.91L459.29,525.17C459.03,525.68 458.97,526.11 459.1,526.44C459.23,526.77 459.63,526.94 460.29,526.94L470.3,526.94C471.12,526.94 471.71,526.61 472.07,525.94L474.73,520.98L477.4,516.02L488.25,495.81Z" style="fill:white;"/>
    </g>
    <g transform="matrix(1,0,0,1,-210,-427.5)">
        <path d="M680.74,495.81L686.78,484.54C686.99,484.18 687.27,484 687.63,484L688.09,484C688.45,484 688.73,484.18 688.93,484.54L696.63,498.72L701.19,507.08L710.6,524.34L711.48,525.95C711.79,526.62 712.38,526.95 713.25,526.95L723.03,526.95C723.64,526.95 724.02,526.78 724.15,526.45C724.28,526.12 724.21,525.69 723.96,525.18L698.48,478.92C697.2,476.61 695.89,475.06 694.56,474.26C693.23,473.46 691.58,473.06 689.63,473.06L685.09,473.06C683.45,473.06 682.01,473.46 680.78,474.26C679.55,475.05 678.29,476.61 677.01,478.92L651.77,525.18C651.51,525.69 651.45,526.12 651.58,526.45C651.71,526.78 652.11,526.95 652.77,526.95L662.78,526.95C663.6,526.95 664.19,526.62 664.55,525.95L667.2,520.99L669.87,516.03L680.74,495.81Z" style="fill:white;"/>
    </g>
    <defs>
        <linearGradient id="_Linear2" x1="0" y1="0" x2="1" y2="0" gradientUnits="userSpaceOnUse" gradientTransform="matrix(105.125,-105.125,105.125,105.125,209.205,547.83)"><stop offset="0" style="stop-color:rgb(42,164,247);stop-opacity:1"/><stop offset="1" style="stop-color:rgb(102,53,255);stop-opacity:1"/></linearGradient>
    </defs>
</svg>
